<?xml version="1.0" encoding="UTF-8" standalone="no"?>
<!DOCTYPE svg PUBLIC "-//W3C//DTD SVG 1.1//EN" "http://www.w3.org/Graphics/SVG/1.1/DTD/svg11.dtd">
<svg width="100%" height="100%" viewBox="0 0 613 612" version="1.1" xmlns="http://www.w3.org/2000/svg" xmlns:xlink="http://www.w3.org/1999/xlink" xml:space="preserve" xmlns:serif="http://www.serif.com/" style="fill-rule:evenodd;clip-rule:evenodd;stroke-linejoin:round;stroke-miterlimit:2;">
    <g transform="matrix(1,0,0,1,-1.15507,-90)">
        <g transform="matrix(-1,0,0,1,612.616,0.4111)">
            <path d="M306.308,118.662C153.252,118.662 29.176,242.738 29.176,395.794C29.176,548.85 153.252,672.926 306.308,672.926C459.363,672.926 583.44,548.85 583.44,395.794C583.44,242.738 459.363,118.662 306.308,118.662"/>
        </g>
        <g transform="matrix(231.158,-4.45686e-30,0,-231.158,302.897,389.124)">
            <clipPath id="_clip1">
                <path d="M0.158,-0.031C0.158,-0.031 0.158,-0.032 0.158,-0.032C0.158,-0.111 0.094,-0.174 0.016,-0.174C-0.063,-0.174 -0.126,-0.111 -0.126,-0.032C-0.126,-0.032 -0.126,-0.031 -0.126,-0.031L-0.611,-0.031C-0.598,-0.043 -0.587,-0.049 -0.587,-0.049C-0.587,-0.049 -0.558,-0.069 -0.586,-0.089C-0.614,-0.101 -0.702,-0.038 -0.702,-0.038C-0.682,-0.23 -0.542,-0.256 -0.542,-0.256C-0.542,-0.256 -0.513,-0.272 -0.53,-0.293C-0.553,-0.314 -0.657,-0.285 -0.657,-0.285C-0.572,-0.459 -0.432,-0.432 -0.432,-0.432C-0.432,-0.432 -0.399,-0.436 -0.408,-0.461C-0.422,-0.489 -0.53,-0.498 -0.53,-0.498C-0.391,-0.632 -0.267,-0.561 -0.267,-0.561C-0.267,-0.561 -0.24,-0.548 -0.234,-0.58C-0.237,-0.611 -0.336,-0.656 -0.336,-0.656C-0.159,-0.735 -0.067,-0.626 -0.067,-0.626C-0.067,-0.626 -0.04,-0.61 -0.031,-0.635C-0.024,-0.665 -0.101,-0.741 -0.101,-0.741C0.092,-0.755 0.137,-0.623 0.141,-0.618C0.143,-0.615 0.162,-0.591 0.179,-0.612C0.196,-0.637 0.149,-0.736 0.149,-0.736C0.335,-0.682 0.333,-0.538 0.333,-0.538C0.333,-0.538 0.343,-0.506 0.367,-0.52C0.392,-0.538 0.381,-0.646 0.381,-0.646C0.538,-0.532 0.489,-0.399 0.489,-0.399C0.489,-0.399 0.488,-0.365 0.514,-0.37C0.544,-0.379 0.571,-0.484 0.571,-0.484C0.679,-0.324 0.588,-0.215 0.588,-0.215L0.585,-0.212C0.585,-0.212 0.573,-0.183 0.6,-0.178C0.63,-0.176 0.692,-0.266 0.692,-0.266C0.724,-0.138 0.677,-0.064 0.644,-0.031L0.158,-0.031Z" clip-rule="nonzero"/>
            </clipPath>
            <g clip-path="url(#_clip1)">
                <rect x="-1.305" y="-1.319" width="2.608" height="2.608" style="fill:url(#_Radial2);"/>
            </g>
        </g>
        <g transform="matrix(365.487,0,0,-365.487,308.366,399.028)">
            <clipPath id="_clip3">
                <path d="M-0.024,0.37C-0.024,0.366 -0.03,0.366 -0.031,0.37L-0.091,0.588L-0.08,0.362C-0.08,0.358 -0.086,0.356 -0.087,0.36L-0.219,0.689L-0.132,0.346C-0.131,0.342 -0.137,0.34 -0.139,0.343L-0.263,0.532L-0.183,0.32C-0.182,0.316 -0.187,0.313 -0.189,0.316L-0.416,0.588L-0.228,0.289C-0.225,0.285 -0.23,0.281 -0.233,0.284L-0.41,0.425L-0.268,0.249C-0.265,0.246 -0.269,0.241 -0.273,0.243L-0.573,0.431L-0.301,0.205C-0.297,0.202 -0.301,0.197 -0.304,0.199L-0.516,0.279L-0.327,0.155C-0.323,0.152 -0.326,0.147 -0.33,0.148L-0.673,0.234L-0.344,0.103C-0.34,0.101 -0.342,0.096 -0.346,0.096L-0.572,0.107L-0.354,0.047C-0.35,0.046 -0.35,0.04 -0.354,0.04L-0.707,0.017L-0.247,0.017C-0.247,0.153 -0.137,0.264 -0,0.264C0.136,0.264 0.247,0.153 0.247,0.017L0.707,0.017L0.354,0.04C0.35,0.041 0.349,0.046 0.353,0.047L0.572,0.107L0.346,0.096C0.341,0.096 0.34,0.102 0.344,0.104L0.672,0.236L0.329,0.149C0.325,0.148 0.323,0.153 0.326,0.155L0.516,0.28L0.304,0.199C0.3,0.198 0.297,0.203 0.3,0.206L0.572,0.433L0.272,0.244C0.269,0.242 0.265,0.246 0.267,0.249L0.409,0.426L0.232,0.284C0.229,0.282 0.224,0.285 0.227,0.289L0.415,0.589L0.189,0.317C0.186,0.314 0.181,0.317 0.182,0.321L0.262,0.532L0.138,0.343C0.136,0.34 0.13,0.342 0.131,0.346L0.218,0.689L0.086,0.36C0.085,0.357 0.079,0.358 0.08,0.362L0.09,0.588L0.031,0.37C0.029,0.366 0.023,0.366 0.023,0.37L-0.001,0.724L-0.024,0.37ZM-0.247,0.017L0.247,0.017L-0.247,0.017Z" clip-rule="nonzero"/>
            </clipPath>
            <g clip-path="url(#_clip3)">
                <rect x="-0.838" y="-0.829" width="1.674" height="1.674" style="fill:url(#_Radial4);"/>
            </g>
        </g>
        <g transform="matrix(1,0,0,1,0,0.469566)">
            <rect x="33.056" y="392.503" width="546.507" height="6.525"/>
        </g>
        <g transform="matrix(-0.33763,0,0,0.33763,409.727,262.574)">
            <path d="M306.308,118.662C153.252,118.662 29.176,242.738 29.176,395.794C29.176,548.85 153.252,672.926 306.308,672.926C459.363,672.926 583.44,548.85 583.44,395.794C583.44,242.738 459.363,118.662 306.308,118.662"/>
        </g>
    </g>
    <defs>
        <radialGradient id="_Radial2" cx="0" cy="0" r="1" gradientUnits="userSpaceOnUse" gradientTransform="matrix(1,0,0,-1,0,-0.0306321)"><stop offset="0" style="stop-color:rgb(198,200,202);stop-opacity:1"/><stop offset="1" style="stop-color:rgb(148,150,152);stop-opacity:1"/></radialGradient>
        <radialGradient id="_Radial4" cx="0" cy="0" r="1" gradientUnits="userSpaceOnUse" gradientTransform="matrix(1,0,0,-1,0,0.0165719)"><stop offset="0" style="stop-color:rgb(255,242,0);stop-opacity:1"/><stop offset="1" style="stop-color:rgb(239,66,35);stop-opacity:1"/></radialGradient>
    </defs>
</svg>
