<?xml version="1.0" encoding="UTF-8" standalone="no"?>
<!DOCTYPE svg PUBLIC "-//W3C//DTD SVG 1.1//EN" "http://www.w3.org/Graphics/SVG/1.1/DTD/svg11.dtd">
<svg width="100%" height="100%" viewBox="0 0 612 792" version="1.1" xmlns="http://www.w3.org/2000/svg" xmlns:xlink="http://www.w3.org/1999/xlink" xml:space="preserve" xmlns:serif="http://www.serif.com/" style="fill-rule:evenodd;clip-rule:evenodd;stroke-linejoin:round;stroke-miterlimit:2;">
    <g transform="matrix(-1,0,0,1,612.616,0.4111)">
        <path d="M306.308,118.662C153.252,118.662 29.176,242.738 29.176,395.794C29.176,548.85 153.252,672.926 306.308,672.926C459.363,672.926 583.44,548.85 583.44,395.794C583.44,242.738 459.363,118.662 306.308,118.662"/>
    </g>
    <g transform="matrix(234.701,0,0,-234.701,306.367,392.405)">
        <clipPath id="_clip1">
            <path d="M0.158,-0.031C0.158,-0.031 0.158,-0.032 0.158,-0.032C0.158,-0.111 0.094,-0.174 0.016,-0.174C-0.063,-0.174 -0.126,-0.111 -0.126,-0.032C-0.126,-0.032 -0.126,-0.031 -0.126,-0.031L-0.611,-0.031C-0.598,-0.043 -0.587,-0.049 -0.587,-0.049C-0.587,-0.049 -0.558,-0.069 -0.586,-0.089C-0.614,-0.101 -0.702,-0.038 -0.702,-0.038C-0.682,-0.23 -0.542,-0.256 -0.542,-0.256C-0.542,-0.256 -0.513,-0.272 -0.53,-0.293C-0.553,-0.314 -0.657,-0.285 -0.657,-0.285C-0.572,-0.459 -0.432,-0.432 -0.432,-0.432C-0.432,-0.432 -0.399,-0.436 -0.408,-0.461C-0.422,-0.489 -0.53,-0.498 -0.53,-0.498C-0.391,-0.632 -0.267,-0.561 -0.267,-0.561C-0.267,-0.561 -0.24,-0.548 -0.234,-0.58C-0.237,-0.611 -0.336,-0.656 -0.336,-0.656C-0.159,-0.735 -0.067,-0.626 -0.067,-0.626C-0.067,-0.626 -0.04,-0.61 -0.031,-0.635C-0.024,-0.665 -0.101,-0.741 -0.101,-0.741C0.092,-0.755 0.137,-0.623 0.141,-0.618C0.143,-0.615 0.162,-0.591 0.179,-0.612C0.196,-0.637 0.149,-0.736 0.149,-0.736C0.335,-0.682 0.333,-0.538 0.333,-0.538C0.333,-0.538 0.343,-0.506 0.367,-0.52C0.392,-0.538 0.381,-0.646 0.381,-0.646C0.538,-0.532 0.489,-0.399 0.489,-0.399C0.489,-0.399 0.488,-0.365 0.514,-0.37C0.544,-0.379 0.571,-0.484 0.571,-0.484C0.679,-0.324 0.588,-0.215 0.588,-0.215L0.585,-0.212C0.585,-0.212 0.573,-0.183 0.6,-0.178C0.63,-0.176 0.692,-0.266 0.692,-0.266C0.724,-0.138 0.677,-0.064 0.644,-0.031L0.158,-0.031Z" clip-rule="nonzero"/>
        </clipPath>
        <g clip-path="url(#_clip1)">
            <rect x="-1.305" y="-1.319" width="2.608" height="2.608" style="fill:url(#_Radial2);"/>
        </g>
    </g>
    <g transform="matrix(365.487,0,0,-365.487,306.366,399.028)">
        <clipPath id="_clip3">
            <path d="M-0.024,0.37C-0.024,0.366 -0.03,0.366 -0.031,0.37L-0.091,0.588L-0.08,0.362C-0.08,0.358 -0.086,0.356 -0.087,0.36L-0.219,0.689L-0.132,0.346C-0.131,0.342 -0.137,0.34 -0.139,0.343L-0.263,0.532L-0.183,0.32C-0.182,0.316 -0.187,0.313 -0.189,0.316L-0.416,0.588L-0.228,0.289C-0.225,0.285 -0.23,0.281 -0.233,0.284L-0.41,0.425L-0.268,0.249C-0.265,0.246 -0.269,0.241 -0.273,0.243L-0.573,0.431L-0.301,0.205C-0.297,0.202 -0.301,0.197 -0.304,0.199L-0.516,0.279L-0.327,0.155C-0.323,0.152 -0.326,0.147 -0.33,0.148L-0.673,0.234L-0.344,0.103C-0.34,0.101 -0.342,0.096 -0.346,0.096L-0.572,0.107L-0.354,0.047C-0.35,0.046 -0.35,0.04 -0.354,0.04L-0.707,0.017L-0.247,0.017C-0.247,0.153 -0.137,0.264 -0,0.264C0.136,0.264 0.247,0.153 0.247,0.017L0.707,0.017L0.354,0.04C0.35,0.041 0.349,0.046 0.353,0.047L0.572,0.107L0.346,0.096C0.341,0.096 0.34,0.102 0.344,0.104L0.672,0.236L0.329,0.149C0.325,0.148 0.323,0.153 0.326,0.155L0.516,0.28L0.304,0.199C0.3,0.198 0.297,0.203 0.3,0.206L0.572,0.433L0.272,0.244C0.269,0.242 0.265,0.246 0.267,0.249L0.409,0.426L0.232,0.284C0.229,0.282 0.224,0.285 0.227,0.289L0.415,0.589L0.189,0.317C0.186,0.314 0.181,0.317 0.182,0.321L0.262,0.532L0.138,0.343C0.136,0.34 0.13,0.342 0.131,0.346L0.218,0.689L0.086,0.36C0.085,0.357 0.079,0.358 0.08,0.362L0.09,0.588L0.031,0.37C0.029,0.366 0.023,0.366 0.023,0.37L-0.001,0.724L-0.024,0.37ZM-0.247,0.017L0.247,0.017L-0.247,0.017Z" clip-rule="nonzero"/>
        </clipPath>
        <g clip-path="url(#_clip3)">
            <rect x="-0.838" y="-0.829" width="1.674" height="1.674" style="fill:url(#_Radial4);"/>
        </g>
    </g>
    <g transform="matrix(1,0,0,1,0,0.469566)">
        <rect x="33.056" y="392.503" width="546.507" height="6.525"/>
    </g>
    <g transform="matrix(1,0,0,1,0,70.8855)">
        <path d="M495.693,377.877C495.693,378.306 495.666,378.7 495.614,379.055C495.55,379.48 495.44,379.848 495.286,380.161C495.07,380.605 494.782,380.946 494.426,381.184C494.033,381.445 493.592,381.578 493.103,381.578L476.834,381.578C476.041,381.578 475.309,381.322 474.638,380.814C473.825,380.2 473.419,379.258 473.419,377.989L473.419,343.93C473.419,343.444 473.55,343.01 473.811,342.63C474.087,342.229 474.481,341.937 474.993,341.758C475.257,341.664 475.609,341.585 476.05,341.518C476.435,341.459 476.903,341.429 477.454,341.429C477.962,341.429 478.431,341.461 478.86,341.523C479.301,341.587 479.661,341.671 479.939,341.773C480.455,341.964 480.845,342.258 481.109,342.656C481.362,343.034 481.489,343.463 481.489,343.938L481.489,374.204L493.103,374.204C493.592,374.204 494.033,374.336 494.426,374.598C494.769,374.826 495.048,375.142 495.262,375.544C495.439,375.875 495.558,376.258 495.621,376.693C495.67,377.025 495.693,377.421 495.693,377.877M429.917,363.487L429.917,379.268C429.917,379.774 429.772,380.22 429.484,380.609C429.237,380.942 428.893,381.204 428.451,381.394C428.131,381.533 427.738,381.63 427.275,381.687C426.868,381.737 426.409,381.762 425.896,381.762C425.365,381.762 424.895,381.737 424.489,381.687C424.056,381.634 423.675,381.542 423.346,381.408C422.891,381.225 422.535,380.96 422.279,380.615C421.991,380.227 421.847,379.78 421.847,379.275L421.847,364.171C421.847,362.833 421.749,361.778 421.554,361.006C421.372,360.283 421.116,359.675 420.788,359.18C420.515,358.768 420.158,358.451 419.719,358.232C419.251,357.996 418.694,357.878 418.05,357.878C417.238,357.878 416.383,358.201 415.489,358.845C414.549,359.524 413.547,360.513 412.483,361.81L412.483,379.275C412.483,379.78 412.339,380.227 412.051,380.615C411.794,380.96 411.439,381.225 410.983,381.408C410.655,381.542 410.274,381.634 409.841,381.687C409.434,381.737 408.965,381.762 408.434,381.762C407.922,381.762 407.462,381.737 407.056,381.687C406.606,381.631 406.218,381.539 405.895,381.407C405.396,381.204 405.022,380.909 404.772,380.523C404.533,380.152 404.413,379.734 404.413,379.268L404.413,353.397C404.413,352.975 404.504,352.595 404.685,352.257C404.896,351.859 405.238,351.541 405.709,351.301C406.059,351.121 406.458,351.008 406.906,350.961C407.223,350.928 407.626,350.91 408.113,350.91C408.579,350.91 408.975,350.926 409.301,350.961C409.794,351.011 410.216,351.138 410.567,351.342C410.964,351.573 411.262,351.854 411.46,352.186C411.638,352.48 411.743,352.803 411.775,353.155C412.464,352.625 413.153,352.18 413.843,351.822C415.533,350.944 417.252,350.505 418.999,350.505C420.973,350.505 422.669,350.853 424.087,351.547C425.499,352.239 426.65,353.178 427.541,354.365C428.404,355.517 429.021,356.856 429.391,358.384C429.741,359.833 429.917,361.534 429.917,363.487M370.595,369.746C370.595,371.71 370.229,373.483 369.499,375.065C368.772,376.642 367.762,377.979 366.469,379.077C365.193,380.162 363.7,380.977 361.988,381.522C360.328,382.051 358.54,382.317 356.623,382.317C355.282,382.317 354.044,382.197 352.909,381.961C351.754,381.721 350.745,381.438 349.885,381.111C348.991,380.771 348.224,380.409 347.584,380.026C346.881,379.607 346.378,379.232 346.074,378.904C345.695,378.494 345.417,377.985 345.239,377.374C345.09,376.861 345.014,376.234 345.014,375.492C345.014,375.019 345.035,374.607 345.073,374.255C345.117,373.864 345.194,373.515 345.304,373.208C345.477,372.727 345.749,372.354 346.121,372.088L346.154,372.067L346.187,372.045C346.55,371.811 346.949,371.694 347.383,371.694C347.988,371.694 348.672,371.959 349.432,372.49C349.847,372.78 350.413,373.111 351.132,373.486C351.81,373.838 352.648,374.176 353.646,374.498C354.568,374.796 355.65,374.943 356.895,374.943C357.802,374.943 358.619,374.825 359.344,374.59C360.033,374.366 360.622,374.051 361.11,373.648C361.563,373.275 361.908,372.82 362.146,372.283C362.399,371.718 362.525,371.061 362.525,370.31C362.525,369.563 362.368,368.945 362.056,368.455C361.684,367.872 361.193,367.359 360.58,366.918C359.864,366.403 359.057,365.935 358.157,365.513L355.077,364.071C353.958,363.55 352.887,362.983 351.863,362.368C350.743,361.696 349.746,360.908 348.872,360.002C347.961,359.059 347.225,357.962 346.662,356.711C346.08,355.419 345.789,353.899 345.789,352.152C345.789,350.353 346.119,348.74 346.78,347.312C347.444,345.878 348.372,344.668 349.561,343.685C350.724,342.724 352.096,341.996 353.678,341.502C355.232,341.017 356.883,340.774 358.631,340.774C359.55,340.774 360.468,340.857 361.389,341.023C362.312,341.188 363.173,341.409 363.973,341.683C364.837,341.98 365.571,342.292 366.176,342.62C366.895,343.01 367.402,343.358 367.694,343.662C367.969,343.947 368.173,344.211 368.306,344.453C368.432,344.683 368.531,344.959 368.604,345.282C368.659,345.53 368.697,345.812 368.722,346.129C368.747,346.483 368.76,346.83 368.76,347.166C368.76,347.598 368.741,347.97 368.704,348.282C368.676,348.631 368.614,348.963 368.52,349.279C368.377,349.761 368.134,350.151 367.792,350.449L367.749,350.486L367.704,350.52C367.303,350.82 366.864,350.971 366.385,350.971C365.871,350.971 365.255,350.744 364.538,350.292C364.099,350.017 363.577,349.712 362.969,349.383C362.389,349.068 361.7,348.777 360.9,348.51C360.176,348.268 359.338,348.146 358.387,348.146C357.535,348.146 356.811,348.254 356.217,348.469C355.636,348.68 355.177,348.939 354.841,349.248C354.529,349.533 354.289,349.887 354.122,350.308C353.946,350.749 353.858,351.223 353.858,351.727C353.858,352.452 354.013,353.057 354.321,353.542C354.688,354.12 355.183,354.635 355.806,355.091C356.527,355.617 357.335,356.093 358.233,356.52L361.297,357.969C362.376,358.474 363.441,359.032 364.49,359.646C365.609,360.299 366.614,361.074 367.504,361.97C368.433,362.91 369.176,364.004 369.733,365.256C370.308,366.552 370.595,368.048 370.595,369.746M330.544,364.508L330.544,365.381C330.544,366.629 330.172,367.571 329.425,368.206C328.751,368.779 327.983,369.067 327.124,369.067L311.933,369.067C311.993,369.811 312.1,370.5 312.251,371.131C312.483,372.099 312.863,372.922 313.39,373.601C313.887,374.24 314.544,374.736 315.361,375.087C316.221,375.456 317.315,375.641 318.644,375.641C319.714,375.641 320.666,375.532 321.499,375.315C322.366,375.091 323.109,374.842 323.728,374.57C324.35,374.296 324.877,374.039 325.311,373.797C325.996,373.418 326.591,373.228 327.095,373.228C327.555,373.228 327.97,373.352 328.343,373.601C328.703,373.841 328.974,374.171 329.157,374.59C329.28,374.875 329.366,375.218 329.411,375.618C329.446,375.922 329.464,376.28 329.464,376.692C329.464,377.024 329.451,377.303 329.425,377.526C329.397,377.779 329.368,377.983 329.338,378.14C329.282,378.437 329.183,378.719 329.042,378.985L329.025,379.017L329.007,379.047C328.865,379.289 328.697,379.507 328.502,379.702C328.261,379.943 327.804,380.224 327.133,380.543C326.554,380.819 325.809,381.087 324.899,381.348C324.029,381.597 323.03,381.819 321.899,382.014C320.733,382.215 319.501,382.317 318.204,382.317C315.917,382.317 313.887,381.982 312.112,381.315C310.288,380.627 308.752,379.603 307.504,378.243C306.262,376.888 305.33,375.212 304.709,373.217C304.113,371.299 303.814,369.08 303.814,366.559C303.814,364.17 304.126,362 304.748,360.05C305.387,358.044 306.309,356.344 307.515,354.951C308.746,353.529 310.228,352.438 311.965,351.676C313.693,350.916 315.604,350.537 317.696,350.537C319.93,350.537 321.865,350.916 323.499,351.676C325.124,352.43 326.472,353.46 327.542,354.769C328.583,356.04 329.35,357.54 329.843,359.267C330.311,360.908 330.544,362.656 330.544,364.508M273.743,345.154C273.743,345.606 273.718,345.998 273.671,346.33C273.607,346.769 273.49,347.153 273.318,347.481C273.097,347.905 272.806,348.231 272.445,348.456C272.068,348.694 271.649,348.813 271.185,348.813L262.529,348.813L262.529,379.248C262.529,379.68 262.418,380.084 262.198,380.46L262.168,380.509L262.138,380.555C261.869,380.944 261.483,381.231 260.979,381.418L260.947,381.43L260.914,381.442C260.636,381.53 260.305,381.604 259.92,381.666C259.514,381.73 259.038,381.762 258.494,381.762C257.974,381.762 257.506,381.73 257.09,381.667C256.649,381.599 256.297,381.52 256.034,381.427C255.511,381.243 255.112,380.946 254.839,380.536C254.586,380.156 254.46,379.727 254.46,379.248L254.46,348.813L245.601,348.813C245.144,348.813 244.728,348.698 244.351,348.467C243.964,348.231 243.661,347.885 243.444,347.433C243.308,347.145 243.201,346.799 243.126,346.392C243.062,346.043 243.03,345.631 243.03,345.154C243.03,344.682 243.062,344.269 243.124,343.913C243.195,343.518 243.294,343.174 243.423,342.88C243.631,342.408 243.934,342.048 244.334,341.796C244.712,341.559 245.131,341.441 245.593,341.441L271.179,341.441C271.646,341.441 272.068,341.559 272.445,341.796C272.812,342.027 273.107,342.365 273.329,342.81C273.496,343.141 273.609,343.528 273.672,343.972C273.718,344.312 273.743,344.706 273.743,345.154M170.834,370.916L170.834,361.733C169.787,360.481 168.786,359.52 167.832,358.851C166.917,358.211 165.988,357.892 165.043,357.892C164.175,357.892 163.464,358.083 162.909,358.467C162.285,358.898 161.771,359.475 161.364,360.2C160.927,360.981 160.606,361.886 160.401,362.913C160.184,363.996 160.075,365.093 160.075,366.206C160.075,367.416 160.168,368.604 160.356,369.769C160.529,370.85 160.821,371.795 161.233,372.6C161.608,373.337 162.098,373.92 162.701,374.353C163.235,374.735 163.948,374.926 164.841,374.926C165.308,374.926 165.76,374.861 166.196,374.733C166.614,374.609 167.062,374.39 167.539,374.074C168.068,373.725 168.625,373.266 169.214,372.696C169.731,372.196 170.271,371.602 170.834,370.916M148.905,363.487L148.905,379.268C148.905,379.774 148.76,380.22 148.472,380.609C148.225,380.942 147.881,381.204 147.439,381.394C147.119,381.533 146.726,381.63 146.263,381.687C145.856,381.737 145.397,381.762 144.884,381.762C144.353,381.762 143.883,381.737 143.478,381.687C143.044,381.634 142.663,381.542 142.334,381.408C141.879,381.225 141.523,380.96 141.267,380.615C140.979,380.227 140.835,379.78 140.835,379.275L140.835,364.171C140.835,362.833 140.737,361.778 140.542,361.006C140.36,360.283 140.104,359.675 139.776,359.18C139.503,358.768 139.146,358.451 138.707,358.232C138.239,357.996 137.682,357.878 137.038,357.878C136.226,357.878 135.371,358.201 134.477,358.845C133.537,359.524 132.535,360.513 131.471,361.81L131.471,379.275C131.471,379.78 131.327,380.227 131.039,380.615C130.782,380.96 130.427,381.225 129.971,381.408C129.643,381.542 129.262,381.634 128.829,381.687C128.423,381.737 127.953,381.762 127.422,381.762C126.91,381.762 126.451,381.737 126.044,381.687C125.594,381.631 125.206,381.539 124.883,381.407C124.384,381.204 124.01,380.909 123.76,380.523C123.522,380.152 123.401,379.734 123.401,379.268L123.401,353.397C123.401,352.975 123.492,352.595 123.673,352.257C123.885,351.859 124.226,351.541 124.697,351.301C125.047,351.121 125.446,351.008 125.894,350.961C126.211,350.928 126.614,350.91 127.101,350.91C127.567,350.91 127.963,350.926 128.289,350.961C128.782,351.011 129.204,351.138 129.555,351.342C129.952,351.573 130.25,351.854 130.449,352.186C130.626,352.48 130.731,352.803 130.763,353.155C131.452,352.625 132.141,352.18 132.831,351.822C134.521,350.944 136.24,350.505 137.988,350.505C139.961,350.505 141.657,350.853 143.075,351.547C144.487,352.239 145.638,353.178 146.529,354.365C147.392,355.517 148.009,356.856 148.379,358.384C148.729,359.833 148.905,361.534 148.905,363.487M190.744,362.363L201.279,362.363C201.134,360.88 200.714,359.692 200.019,358.799C199.18,357.721 197.889,357.182 196.144,357.182C195.238,357.182 194.466,357.352 193.827,357.689C193.15,358.047 192.586,358.514 192.139,359.09C191.665,359.701 191.293,360.427 191.025,361.269C190.911,361.627 190.817,361.991 190.744,362.363M525.629,374.892C525.629,375.227 525.618,375.538 525.597,375.827C525.575,376.118 525.525,376.416 525.448,376.723C525.367,377.037 525.254,377.322 525.109,377.58C524.968,377.83 524.755,378.103 524.471,378.397C524.204,378.674 523.718,379.046 523.01,379.513C522.321,379.969 521.482,380.405 520.493,380.823C519.501,381.243 518.38,381.594 517.13,381.879C515.848,382.17 514.459,382.317 512.961,382.317C510.362,382.317 508.004,381.878 505.887,381.003C503.739,380.114 501.906,378.797 500.386,377.055C498.887,375.336 497.74,373.23 496.945,370.74C496.165,368.294 495.774,365.506 495.774,362.375C495.774,359.147 496.195,356.264 497.034,353.723C497.888,351.134 499.092,348.935 500.642,347.126C502.216,345.29 504.106,343.885 506.314,342.911C508.49,341.952 510.894,341.472 513.526,341.472C514.692,341.472 515.825,341.577 516.921,341.786C517.983,341.989 518.981,342.249 519.918,342.567C520.849,342.884 521.703,343.267 522.476,343.716C523.259,344.169 523.821,344.561 524.163,344.893C524.542,345.262 524.801,345.568 524.94,345.815C525.078,346.058 525.189,346.325 525.271,346.618C525.327,346.823 525.38,347.103 525.427,347.46C525.468,347.774 525.49,348.128 525.49,348.519C525.49,348.939 525.463,349.328 525.409,349.684C525.349,350.082 525.25,350.435 525.113,350.74C524.922,351.166 524.67,351.498 524.358,351.735C523.968,352.039 523.514,352.191 522.996,352.191C522.38,352.191 521.691,351.915 520.931,351.365C520.508,351.058 519.941,350.711 519.231,350.321C518.551,349.949 517.72,349.605 516.737,349.292C515.803,348.993 514.659,348.844 513.303,348.844C511.895,348.844 510.617,349.121 509.47,349.675C508.344,350.219 507.374,351.029 506.562,352.103C505.715,353.223 505.053,354.608 504.577,356.261C504.088,357.957 503.844,359.912 503.844,362.124C503.844,364.313 504.08,366.242 504.551,367.911C505.003,369.509 505.64,370.831 506.465,371.875C507.263,372.886 508.233,373.646 509.377,374.154C510.561,374.68 511.916,374.943 513.442,374.943C514.737,374.943 515.854,374.775 516.795,374.438C517.798,374.078 518.64,373.683 519.319,373.253C520.03,372.802 520.622,372.389 521.1,372.01C521.895,371.381 522.622,371.067 523.282,371.067C523.73,371.067 524.127,371.179 524.475,371.403C524.886,371.657 525.18,372.041 525.357,372.555C525.46,372.841 525.532,373.198 525.573,373.625C525.611,374.017 525.629,374.439 525.629,374.892M471.306,377.877C471.306,378.306 471.279,378.7 471.226,379.055C471.162,379.48 471.053,379.848 470.899,380.161C470.682,380.605 470.395,380.946 470.038,381.184C469.645,381.445 469.204,381.578 468.715,381.578L452.446,381.578C451.654,381.578 450.921,381.322 450.25,380.814C449.438,380.2 449.031,379.258 449.031,377.989L449.031,343.93C449.031,343.444 449.162,343.01 449.424,342.63C449.7,342.229 450.093,341.937 450.605,341.758C450.87,341.664 451.221,341.585 451.663,341.518C452.047,341.459 452.516,341.429 453.066,341.429C453.574,341.429 454.044,341.461 454.472,341.523C454.914,341.587 455.273,341.671 455.551,341.773C456.067,341.964 456.457,342.258 456.721,342.656C456.974,343.034 457.101,343.463 457.101,343.938L457.101,374.204L468.715,374.204C469.204,374.204 469.645,374.336 470.038,374.598C470.382,374.826 470.66,375.142 470.875,375.544C471.051,375.875 471.171,376.258 471.234,376.693C471.282,377.025 471.306,377.421 471.306,377.877M399.894,353.728L399.894,379.467C399.894,379.908 399.785,380.31 399.569,380.67C399.337,381.055 398.987,381.356 398.517,381.571C398.222,381.707 397.857,381.806 397.423,381.868C397.088,381.915 396.683,381.939 396.208,381.939C395.7,381.939 395.276,381.915 394.939,381.868C394.491,381.805 394.119,381.701 393.82,381.554C393.352,381.326 393.011,381.008 392.792,380.6C392.645,380.323 392.558,380.02 392.531,379.692C391.834,380.221 391.136,380.665 390.437,381.025C388.759,381.885 387.05,382.317 385.309,382.317C383.33,382.317 381.638,381.978 380.232,381.3C378.806,380.615 377.65,379.677 376.764,378.487C375.9,377.328 375.284,375.993 374.917,374.481C374.566,373.039 374.39,371.325 374.39,369.341L374.39,353.728C374.39,353.255 374.515,352.833 374.763,352.461C375.01,352.09 375.376,351.8 375.859,351.593C376.231,351.434 376.647,351.337 377.105,351.303C377.451,351.266 377.891,351.248 378.425,351.248C378.892,351.248 379.332,351.266 379.746,351.303C380.255,351.348 380.683,351.454 381.03,351.616C381.453,351.815 381.779,352.068 382.011,352.373C382.31,352.757 382.46,353.209 382.46,353.728L382.46,368.631C382.46,369.993 382.555,371.068 382.744,371.856C382.912,372.554 383.162,373.142 383.494,373.62C383.788,374.044 384.155,374.371 384.598,374.599C385.042,374.829 385.587,374.943 386.236,374.943C387.06,374.943 387.913,374.625 388.798,373.988C389.727,373.32 390.736,372.34 391.824,371.048L391.824,353.728C391.824,353.286 391.933,352.885 392.148,352.524L392.187,352.461L392.23,352.402C392.467,352.078 392.804,351.815 393.242,351.613L393.272,351.599L393.304,351.586C393.656,351.439 394.061,351.346 394.521,351.303C394.924,351.266 395.369,351.248 395.859,351.248C396.389,351.248 396.826,351.266 397.173,351.303C397.655,351.339 398.081,351.443 398.448,351.616C398.82,351.791 399.128,352.019 399.372,352.3L399.392,352.323L399.412,352.349C399.734,352.751 399.894,353.21 399.894,353.728M312.128,362.363L322.663,362.363C322.518,360.88 322.098,359.692 321.403,358.799C320.564,357.721 319.273,357.182 317.528,357.182C316.622,357.182 315.85,357.352 315.211,357.689C314.533,358.047 313.97,358.514 313.523,359.09C313.049,359.701 312.677,360.427 312.409,361.269C312.295,361.627 312.201,361.991 312.128,362.363M300.219,363.515L300.219,379.268C300.219,379.774 300.074,380.22 299.786,380.609C299.539,380.942 299.195,381.204 298.754,381.394C298.433,381.533 298.04,381.63 297.577,381.687C297.17,381.737 296.711,381.762 296.198,381.762C295.667,381.762 295.197,381.737 294.792,381.687C294.358,381.634 293.977,381.542 293.649,381.408C293.193,381.225 292.838,380.96 292.581,380.615C292.294,380.227 292.149,379.78 292.149,379.275L292.149,364.171C292.149,362.833 292.051,361.778 291.856,361.006C291.674,360.283 291.419,359.675 291.09,359.18C290.817,358.768 290.46,358.451 290.021,358.232C289.553,357.996 288.996,357.878 288.352,357.878C287.54,357.878 286.686,358.201 285.791,358.845C284.851,359.524 283.849,360.513 282.785,361.81L282.785,379.275C282.785,379.78 282.642,380.227 282.353,380.615C282.096,380.96 281.741,381.225 281.285,381.408C280.957,381.542 280.576,381.634 280.143,381.687C279.737,381.737 279.267,381.762 278.736,381.762C278.224,381.762 277.765,381.737 277.358,381.687C276.891,381.63 276.503,381.539 276.197,381.413C275.709,381.216 275.34,380.927 275.088,380.55C274.839,380.178 274.715,379.754 274.715,379.282L274.715,341.298C274.715,340.84 274.832,340.426 275.063,340.055C275.317,339.648 275.695,339.343 276.197,339.138C276.503,339.013 276.891,338.922 277.358,338.865C277.726,338.82 278.186,338.798 278.736,338.798C279.306,338.798 279.775,338.82 280.143,338.865C280.613,338.922 281.002,339.016 281.31,339.147C281.76,339.337 282.113,339.611 282.367,339.971C282.645,340.353 282.785,340.796 282.785,341.298L282.785,352.939C283.361,352.503 283.939,352.127 284.52,351.813C286.131,350.942 287.766,350.505 289.42,350.505C291.378,350.505 293.057,350.854 294.459,351.551C295.855,352.244 296.993,353.184 297.875,354.371C298.725,355.516 299.334,356.854 299.7,358.388C300.046,359.83 300.219,361.539 300.219,363.515M231.684,355.247L231.654,356.42L231.653,356.446C231.627,356.883 231.564,357.254 231.466,357.559C231.339,357.949 231.154,358.275 230.913,358.537L230.891,358.56L230.868,358.582C230.469,358.982 229.974,359.182 229.385,359.182C228.888,359.182 228.398,359.009 227.912,358.664C227.777,358.569 227.579,358.449 227.319,358.304C227.12,358.193 226.879,358.082 226.593,357.97C226.436,357.908 226.26,357.878 226.065,357.878C225.809,357.878 225.554,357.932 225.302,358.041C225.011,358.166 224.677,358.396 224.3,358.731C223.891,359.094 223.442,359.606 222.954,360.265C222.474,360.913 221.971,361.652 221.447,362.481L221.447,379.26C221.447,379.771 221.303,380.22 221.014,380.609C220.763,380.948 220.415,381.211 219.971,381.399C219.632,381.543 219.237,381.639 218.787,381.689C218.352,381.738 217.889,381.762 217.397,381.762C216.886,381.762 216.426,381.737 216.019,381.687C215.569,381.631 215.182,381.539 214.858,381.407C214.359,381.204 213.986,380.909 213.736,380.523C213.497,380.152 213.376,379.734 213.376,379.268L213.376,353.397C213.376,352.975 213.468,352.595 213.648,352.257C213.86,351.859 214.201,351.541 214.672,351.301C215.023,351.121 215.422,351.008 215.869,350.961C216.186,350.928 216.589,350.91 217.077,350.91C217.542,350.91 217.939,350.926 218.265,350.961C218.757,351.011 219.179,351.138 219.531,351.342C219.928,351.573 220.225,351.854 220.424,352.186C220.552,352.398 220.642,352.625 220.693,352.866C221.162,352.435 221.621,352.069 222.073,351.769C222.795,351.289 223.512,350.957 224.222,350.772C224.908,350.595 225.597,350.505 226.289,350.505C226.58,350.505 226.917,350.525 227.302,350.562C227.724,350.603 228.126,350.668 228.504,350.756C228.898,350.848 229.276,350.958 229.636,351.089C230.106,351.26 230.468,351.452 230.719,351.668C231.024,351.928 231.245,352.222 231.381,352.548C231.468,352.746 231.536,352.969 231.584,353.216C231.627,353.435 231.654,353.721 231.668,354.075L231.67,354.095L231.684,355.247ZM209.253,364.508L209.253,365.381C209.253,366.629 208.881,367.571 208.134,368.206C207.459,368.779 206.692,369.067 205.832,369.067L190.641,369.067C190.702,369.811 190.808,370.5 190.96,371.131C191.192,372.099 191.571,372.922 192.099,373.601C192.595,374.24 193.252,374.736 194.07,375.087C194.929,375.456 196.024,375.641 197.353,375.641C198.423,375.641 199.375,375.532 200.207,375.315C201.075,375.091 201.818,374.842 202.436,374.57C203.058,374.296 203.586,374.039 204.019,373.797C204.704,373.418 205.3,373.228 205.804,373.228C206.263,373.228 206.679,373.352 207.051,373.601C207.412,373.841 207.682,374.171 207.866,374.59C207.989,374.875 208.075,375.218 208.12,375.618C208.154,375.922 208.172,376.28 208.172,376.692C208.172,377.024 208.16,377.303 208.134,377.526C208.106,377.779 208.076,377.983 208.047,378.14C207.99,378.437 207.892,378.719 207.75,378.985L207.734,379.017L207.716,379.047C207.573,379.289 207.405,379.507 207.21,379.702C206.969,379.943 206.512,380.224 205.841,380.543C205.263,380.819 204.517,381.087 203.607,381.348C202.738,381.597 201.738,381.819 200.608,382.014C199.442,382.215 198.21,382.317 196.913,382.317C194.625,382.317 192.595,381.982 190.821,381.315C188.997,380.627 187.461,379.603 186.212,378.243C184.97,376.888 184.039,375.212 183.418,373.217C182.821,371.299 182.522,369.08 182.522,366.559C182.522,364.17 182.834,362 183.456,360.05C184.095,358.044 185.018,356.344 186.224,354.951C187.454,353.529 188.936,352.438 190.673,351.676C192.402,350.916 194.312,350.537 196.405,350.537C198.638,350.537 200.573,350.916 202.208,351.676C203.832,352.43 205.181,353.46 206.25,354.769C207.291,356.04 208.058,357.54 208.551,359.267C209.019,360.908 209.253,362.656 209.253,364.508M178.844,341.447L178.844,379.467C178.844,379.894 178.743,380.287 178.541,380.646L178.523,380.678L178.504,380.709C178.238,381.135 177.864,381.44 177.38,381.625C177.081,381.739 176.753,381.823 176.397,381.874C176.065,381.923 175.665,381.946 175.199,381.946C174.715,381.946 174.307,381.923 173.974,381.874C173.623,381.824 173.297,381.743 172.997,381.633C172.516,381.456 172.139,381.167 171.863,380.767C171.639,380.44 171.51,380.071 171.479,379.665C170.866,380.125 170.243,380.533 169.61,380.886C167.904,381.839 166.045,382.317 164.035,382.317C161.877,382.317 160.005,381.878 158.418,381.001C156.854,380.138 155.583,378.964 154.601,377.478C153.666,376.062 152.985,374.403 152.556,372.501C152.149,370.691 151.945,368.778 151.945,366.761C151.945,364.392 152.201,362.239 152.71,360.303C153.235,358.307 154.021,356.591 155.07,355.152C156.146,353.676 157.489,352.536 159.1,351.736C160.706,350.936 162.53,350.537 164.572,350.537C166.353,350.537 167.985,350.96 169.469,351.806C169.908,352.057 170.343,352.341 170.774,352.66L170.774,341.441C170.774,341.065 170.862,340.699 171.041,340.344L171.079,340.266L171.128,340.191C171.404,339.764 171.804,339.457 172.328,339.27L172.358,339.258L172.39,339.249C172.669,339.162 172.993,339.09 173.363,339.03C173.736,338.97 174.208,338.94 174.781,338.94C175.364,338.94 175.846,338.97 176.225,339.029C176.629,339.092 176.968,339.17 177.241,339.265L177.277,339.278L177.312,339.292C177.755,339.469 178.113,339.734 178.383,340.089L178.415,340.13L178.444,340.173C178.71,340.574 178.844,340.998 178.844,341.447M118.179,343.979L118.179,366.532C118.179,368.96 117.816,371.149 117.088,373.099C116.349,375.079 115.288,376.76 113.903,378.14C112.513,379.527 110.829,380.573 108.851,381.281C106.924,381.971 104.754,382.317 102.339,382.317C100.118,382.317 98.083,381.991 96.232,381.34C94.341,380.676 92.71,379.686 91.34,378.371C89.954,377.042 88.897,375.404 88.168,373.456C87.455,371.549 87.097,369.364 87.097,366.901L87.097,343.979C87.097,343.499 87.224,343.07 87.476,342.691C87.753,342.276 88.156,341.98 88.686,341.803C88.958,341.705 89.294,341.624 89.696,341.561C90.072,341.501 90.554,341.472 91.146,341.472C91.667,341.472 92.136,341.502 92.555,341.567C92.996,341.632 93.35,341.714 93.618,341.813C94.129,341.999 94.519,342.294 94.787,342.697C95.04,343.077 95.167,343.507 95.167,343.986L95.167,366.315C95.167,367.858 95.349,369.187 95.715,370.302C96.057,371.344 96.547,372.206 97.185,372.89C97.811,373.56 98.569,374.067 99.458,374.408C100.387,374.765 101.451,374.943 102.652,374.943C103.889,374.943 104.975,374.769 105.915,374.417C106.79,374.09 107.531,373.597 108.142,372.938C108.753,372.277 109.229,371.434 109.57,370.408C109.929,369.326 110.109,368.048 110.109,366.573L110.109,343.986C110.109,343.507 110.236,343.077 110.489,342.697C110.754,342.299 111.144,342.005 111.659,341.814L111.692,341.803L111.724,341.792C112.001,341.703 112.336,341.628 112.727,341.567C113.138,341.504 113.614,341.472 114.158,341.472C114.714,341.472 115.181,341.501 115.56,341.56C115.968,341.623 116.315,341.708 116.602,341.813C117.077,341.986 117.45,342.253 117.724,342.612C118.026,343.014 118.179,343.469 118.179,343.979"/>
    </g>
    <g transform="matrix(1,0,0,1,0,70.8819)">
        <path d="M494.179,377.905C494.179,378.283 494.158,378.589 494.116,378.847C494.081,379.099 494.019,379.314 493.935,379.489C493.844,379.67 493.747,379.803 493.621,379.886C493.495,379.97 493.35,380.012 493.182,380.012L476.912,380.012C476.473,380.012 476.061,379.865 475.678,379.572C475.288,379.28 475.093,378.764 475.093,378.017L475.093,343.959C475.093,343.813 475.127,343.673 475.204,343.562C475.281,343.45 475.413,343.36 475.602,343.29C475.789,343.227 476.049,343.172 476.369,343.123C476.69,343.074 477.08,343.052 477.533,343.052C478.008,343.052 478.398,343.08 478.712,343.129C479.025,343.172 479.277,343.227 479.465,343.297C479.654,343.367 479.786,343.45 479.863,343.569C479.939,343.681 479.975,343.813 479.975,343.966L479.975,375.827L493.182,375.827C493.357,375.827 493.495,375.869 493.621,375.953C493.747,376.037 493.851,376.162 493.935,376.322C494.019,376.476 494.081,376.685 494.123,376.951C494.158,377.215 494.179,377.536 494.179,377.905M428.372,363.506L428.372,379.286C428.372,379.446 428.329,379.572 428.252,379.677C428.169,379.789 428.043,379.872 427.869,379.949C427.688,380.025 427.444,380.088 427.13,380.124C426.817,380.165 426.419,380.185 425.944,380.185C425.449,380.185 425.045,380.165 424.73,380.124C424.417,380.088 424.174,380.025 423.991,379.949C423.811,379.879 423.685,379.789 423.608,379.684C423.524,379.572 423.49,379.446 423.49,379.294L423.49,364.189C423.49,362.717 423.378,361.532 423.149,360.632C422.925,359.74 422.597,358.965 422.164,358.318C421.732,357.662 421.175,357.167 420.485,356.825C419.801,356.476 419.006,356.302 418.1,356.302C416.935,356.302 415.77,356.728 414.606,357.571C413.441,358.409 412.221,359.643 410.938,361.267L410.938,379.294C410.938,379.446 410.903,379.572 410.819,379.684C410.743,379.789 410.617,379.879 410.435,379.949C410.254,380.025 410.01,380.088 409.696,380.124C409.383,380.165 408.979,380.185 408.484,380.185C408.009,380.185 407.611,380.165 407.298,380.124C406.984,380.088 406.732,380.025 406.545,379.949C406.356,379.872 406.231,379.789 406.161,379.677C406.091,379.572 406.056,379.446 406.056,379.286L406.056,353.415C406.056,353.261 406.084,353.129 406.14,353.025C406.196,352.92 406.308,352.829 406.482,352.739C406.649,352.656 406.866,352.593 407.124,352.565C407.388,352.536 407.73,352.522 408.163,352.522C408.573,352.522 408.916,352.536 409.188,352.565C409.46,352.593 409.669,352.656 409.815,352.739C409.968,352.829 410.08,352.92 410.143,353.025C410.205,353.129 410.24,353.261 410.24,353.415L410.24,356.84C411.712,355.208 413.169,354.014 414.627,353.255C416.084,352.502 417.556,352.118 419.048,352.118C420.784,352.118 422.241,352.418 423.435,352.997C424.619,353.582 425.582,354.363 426.314,355.34C427.046,356.316 427.576,357.467 427.89,358.778C428.211,360.088 428.372,361.665 428.372,363.506M369.097,369.733C369.097,371.476 368.777,373.025 368.149,374.384C367.522,375.744 366.65,376.901 365.535,377.85C364.418,378.798 363.107,379.509 361.601,379.99C360.088,380.471 358.462,380.709 356.72,380.709C355.5,380.709 354.37,380.605 353.33,380.388C352.291,380.173 351.365,379.913 350.549,379.607C349.733,379.294 349.049,378.979 348.499,378.644C347.942,378.317 347.557,378.038 347.34,377.808C347.125,377.571 346.97,377.278 346.867,376.915C346.761,376.56 346.706,376.078 346.706,375.479C346.706,375.053 346.727,374.704 346.755,374.419C346.79,374.14 346.838,373.91 346.901,373.736C346.964,373.561 347.048,373.443 347.145,373.373C347.243,373.31 347.354,373.275 347.48,373.275C347.746,373.275 348.129,373.443 348.617,373.784C349.098,374.119 349.725,374.489 350.492,374.886C351.253,375.284 352.173,375.654 353.253,376.001C354.335,376.35 355.576,376.525 356.992,376.525C358.066,376.525 359.042,376.379 359.934,376.093C360.821,375.8 361.58,375.396 362.222,374.865C362.863,374.335 363.359,373.687 363.7,372.92C364.042,372.152 364.216,371.281 364.216,370.297C364.216,369.237 363.979,368.338 363.498,367.585C363.024,366.839 362.389,366.176 361.609,365.612C360.821,365.047 359.934,364.531 358.931,364.057C357.926,363.589 356.895,363.101 355.848,362.613C354.796,362.124 353.777,361.582 352.78,360.989C351.791,360.388 350.897,359.692 350.116,358.882C349.335,358.074 348.7,357.124 348.212,356.044C347.724,354.956 347.48,353.653 347.48,352.139C347.48,350.577 347.76,349.189 348.324,347.969C348.889,346.749 349.67,345.73 350.673,344.901C351.678,344.071 352.863,343.444 354.252,343.011C355.632,342.579 357.131,342.356 358.728,342.356C359.551,342.356 360.374,342.433 361.203,342.579C362.041,342.731 362.821,342.928 363.554,343.178C364.286,343.429 364.942,343.701 365.513,344.008C366.085,344.322 366.462,344.566 366.643,344.755C366.824,344.942 366.943,345.096 367.005,345.208C367.061,345.312 367.11,345.451 367.145,345.62C367.187,345.793 367.215,345.995 367.228,346.233C367.25,346.47 367.264,346.777 367.264,347.153C367.264,347.516 367.25,347.837 367.215,348.109C367.193,348.387 367.145,348.624 367.09,348.813C367.033,349.002 366.95,349.14 366.845,349.231C366.734,349.315 366.615,349.363 366.483,349.363C366.273,349.363 365.939,349.217 365.486,348.931C365.032,348.645 364.481,348.324 363.825,347.969C363.17,347.613 362.396,347.286 361.503,346.986C360.604,346.686 359.599,346.539 358.484,346.539C357.445,346.539 356.538,346.679 355.772,346.958C354.998,347.236 354.363,347.607 353.86,348.06C353.365,348.52 352.989,349.071 352.738,349.706C352.487,350.333 352.362,351.002 352.362,351.714C352.362,352.745 352.599,353.638 353.074,354.384C353.547,355.131 354.175,355.793 354.962,356.365C355.75,356.943 356.643,357.473 357.648,357.948C358.651,358.429 359.67,358.91 360.715,359.398C361.755,359.887 362.78,360.423 363.783,361.009C364.788,361.594 365.681,362.285 366.469,363.08C367.256,363.876 367.891,364.81 368.373,365.89C368.854,366.978 369.097,368.255 369.097,369.733M329.035,364.495L329.035,365.368C329.035,366.121 328.854,366.665 328.477,366.978C328.108,367.299 327.683,367.459 327.208,367.459L310.361,367.459C310.361,368.951 310.501,370.297 310.787,371.49C311.072,372.682 311.546,373.707 312.216,374.566C312.878,375.423 313.749,376.078 314.817,376.539C315.877,376.992 317.181,377.223 318.729,377.223C319.949,377.223 321.03,377.097 321.985,376.846C322.934,376.602 323.757,376.322 324.453,376.016C325.152,375.709 325.724,375.43 326.169,375.179C326.615,374.935 326.958,374.809 327.18,374.809C327.32,374.809 327.439,374.844 327.543,374.913C327.648,374.984 327.724,375.081 327.78,375.214C327.843,375.353 327.884,375.542 327.913,375.786C327.941,376.03 327.955,376.33 327.955,376.679C327.955,376.929 327.947,377.152 327.927,377.333C327.906,377.522 327.884,377.682 327.857,377.828C327.829,377.976 327.78,378.108 327.717,378.226C327.648,378.345 327.564,378.457 327.46,378.561C327.354,378.666 327.048,378.839 326.532,379.091C326.023,379.328 325.361,379.572 324.545,379.803C323.729,380.039 322.787,380.248 321.713,380.43C320.647,380.618 319.502,380.709 318.29,380.709C316.183,380.709 314.342,380.409 312.76,379.809C311.177,379.217 309.845,378.331 308.763,377.152C307.683,375.974 306.867,374.503 306.317,372.731C305.765,370.96 305.494,368.896 305.494,366.546C305.494,364.308 305.779,362.299 306.351,360.521C306.916,358.736 307.732,357.223 308.806,355.981C309.88,354.741 311.169,353.785 312.69,353.123C314.203,352.453 315.897,352.118 317.781,352.118C319.788,352.118 321.497,352.453 322.913,353.109C324.321,353.764 325.479,354.656 326.392,355.766C327.299,356.881 327.969,358.185 328.394,359.692C328.826,361.19 329.035,362.794 329.035,364.495M272.223,345.173C272.223,345.535 272.203,345.856 272.168,346.121C272.126,346.385 272.063,346.602 271.979,346.763C271.896,346.923 271.791,347.049 271.673,347.126C271.548,347.201 271.415,347.236 271.261,347.236L261.011,347.236L261.011,379.265C261.011,379.419 260.968,379.552 260.899,379.67C260.822,379.781 260.69,379.872 260.501,379.942C260.306,380.004 260.055,380.061 259.748,380.11C259.434,380.158 259.044,380.185 258.569,380.185C258.116,380.185 257.726,380.158 257.405,380.11C257.085,380.061 256.827,380.004 256.638,379.942C256.45,379.872 256.318,379.781 256.241,379.67C256.164,379.552 256.129,379.419 256.129,379.265L256.129,347.236L245.676,347.236C245.522,347.236 245.382,347.201 245.258,347.126C245.132,347.049 245.035,346.923 244.958,346.763C244.881,346.602 244.819,346.385 244.769,346.121C244.72,345.856 244.7,345.535 244.7,345.173C244.7,344.81 244.72,344.489 244.769,344.211C244.819,343.939 244.881,343.716 244.958,343.541C245.035,343.367 245.132,343.241 245.258,343.164C245.376,343.088 245.516,343.052 245.669,343.052L271.254,343.052C271.407,343.052 271.548,343.088 271.673,343.164C271.791,343.241 271.896,343.367 271.979,343.541C272.07,343.716 272.126,343.939 272.168,344.211C272.203,344.489 272.223,344.81 272.223,345.173M172.449,371.483L172.449,361.17C171.179,359.586 169.952,358.38 168.767,357.55C167.581,356.72 166.347,356.302 165.064,356.302C163.871,356.302 162.86,356.588 162.023,357.16C161.193,357.739 160.517,358.492 159.994,359.426C159.471,360.36 159.094,361.421 158.857,362.605C158.621,363.791 158.502,364.991 158.502,366.211C158.502,367.508 158.599,368.784 158.803,370.025C158.997,371.267 159.346,372.369 159.833,373.331C160.329,374.294 160.984,375.067 161.794,375.654C162.61,376.232 163.635,376.525 164.861,376.525C165.489,376.525 166.089,376.434 166.668,376.267C167.246,376.093 167.832,375.806 168.438,375.409C169.045,375.005 169.68,374.489 170.342,373.847C171.004,373.206 171.709,372.418 172.449,371.483M147.344,363.506L147.344,379.286C147.344,379.446 147.302,379.572 147.226,379.677C147.142,379.789 147.017,379.872 146.843,379.949C146.66,380.025 146.417,380.088 146.104,380.124C145.789,380.165 145.392,380.185 144.918,380.185C144.423,380.185 144.019,380.165 143.704,380.124C143.39,380.088 143.146,380.025 142.965,379.949C142.783,379.879 142.659,379.789 142.582,379.684C142.498,379.572 142.462,379.446 142.462,379.294L142.462,364.189C142.462,362.717 142.352,361.532 142.121,360.632C141.898,359.74 141.571,358.965 141.138,358.318C140.706,357.662 140.148,357.167 139.458,356.825C138.774,356.476 137.98,356.302 137.073,356.302C135.908,356.302 134.744,356.728 133.579,357.571C132.414,358.409 131.194,359.643 129.911,361.267L129.911,379.294C129.911,379.446 129.876,379.572 129.793,379.684C129.716,379.789 129.59,379.879 129.409,379.949C129.228,380.025 128.983,380.088 128.67,380.124C128.356,380.165 127.952,380.185 127.456,380.185C126.982,380.185 126.585,380.165 126.271,380.124C125.958,380.088 125.706,380.025 125.518,379.949C125.329,379.872 125.205,379.789 125.134,379.677C125.065,379.572 125.03,379.446 125.03,379.286L125.03,353.415C125.03,353.261 125.057,353.129 125.114,353.025C125.169,352.92 125.28,352.829 125.455,352.739C125.623,352.656 125.838,352.593 126.096,352.565C126.362,352.536 126.703,352.522 127.135,352.522C127.547,352.522 127.889,352.536 128.161,352.565C128.433,352.593 128.642,352.656 128.788,352.739C128.942,352.829 129.054,352.92 129.116,353.025C129.179,353.129 129.214,353.261 129.214,353.415L129.214,356.84C130.686,355.208 132.142,354.014 133.599,353.255C135.057,352.502 136.529,352.118 138.021,352.118C139.758,352.118 141.215,352.418 142.407,352.997C143.593,353.582 144.555,354.363 145.288,355.34C146.019,356.316 146.549,357.467 146.863,358.778C147.184,360.088 147.344,361.665 147.344,363.506M189.024,363.973L202.977,363.973C202.985,363.847 202.985,363.729 202.985,363.61C202.985,361.17 202.435,359.245 201.333,357.836C200.182,356.351 198.473,355.605 196.2,355.605C195.035,355.605 194.017,355.835 193.139,356.296C192.26,356.763 191.528,357.369 190.935,358.129C190.342,358.896 189.889,359.781 189.561,360.8C189.24,361.811 189.059,362.871 189.024,363.973M524.073,374.879C524.073,375.193 524.059,375.465 524.046,375.695C524.025,375.932 523.99,376.135 523.941,376.316C523.899,376.49 523.836,376.643 523.76,376.783C523.683,376.915 523.551,377.083 523.362,377.278C523.174,377.473 522.776,377.773 522.169,378.171C521.564,378.575 520.811,378.965 519.91,379.342C519.01,379.726 517.979,380.047 516.814,380.311C515.65,380.577 514.38,380.709 513,380.709C510.614,380.709 508.46,380.311 506.536,379.517C504.618,378.721 502.979,377.544 501.627,375.995C500.273,374.44 499.228,372.53 498.503,370.242C497.77,367.962 497.407,365.34 497.407,362.362C497.407,359.314 497.798,356.602 498.586,354.211C499.374,351.832 500.476,349.81 501.891,348.15C503.314,346.497 505.015,345.228 506.996,344.357C508.97,343.485 511.158,343.052 513.565,343.052C514.626,343.052 515.657,343.15 516.661,343.338C517.665,343.533 518.592,343.778 519.443,344.063C520.294,344.357 521.054,344.698 521.716,345.082C522.38,345.466 522.839,345.78 523.091,346.024C523.348,346.274 523.515,346.456 523.592,346.588C523.663,346.714 523.724,346.86 523.774,347.035C523.823,347.209 523.858,347.418 523.886,347.656C523.921,347.892 523.935,348.171 523.935,348.506C523.935,348.868 523.913,349.182 523.872,349.434C523.836,349.692 523.774,349.907 523.697,350.075C523.62,350.249 523.529,350.382 523.425,350.458C523.32,350.542 523.188,350.584 523.034,350.584C522.762,350.584 522.386,350.409 521.905,350.061C521.424,349.712 520.803,349.329 520.036,348.91C519.277,348.492 518.355,348.109 517.26,347.76C516.173,347.411 514.869,347.236 513.343,347.236C511.682,347.236 510.169,347.571 508.816,348.227C507.456,348.882 506.292,349.852 505.33,351.128C504.36,352.404 503.614,353.966 503.084,355.807C502.553,357.648 502.289,359.747 502.289,362.111C502.289,364.454 502.547,366.525 503.056,368.332C503.566,370.13 504.297,371.637 505.253,372.85C506.207,374.056 507.38,374.976 508.767,375.597C510.155,376.211 511.731,376.525 513.481,376.525C514.966,376.525 516.264,376.322 517.372,375.926C518.481,375.528 519.429,375.081 520.21,374.586C520.991,374.091 521.627,373.645 522.128,373.247C522.63,372.85 523.028,372.648 523.32,372.648C523.454,372.648 523.572,372.676 523.663,372.739C523.76,372.794 523.836,372.905 523.892,373.074C523.955,373.24 523.996,373.47 524.025,373.764C524.053,374.056 524.073,374.426 524.073,374.879M469.772,377.905C469.772,378.283 469.752,378.589 469.709,378.847C469.675,379.099 469.612,379.314 469.528,379.489C469.437,379.67 469.34,379.803 469.214,379.886C469.088,379.97 468.942,380.012 468.775,380.012L452.508,380.012C452.066,380.012 451.655,379.865 451.272,379.572C450.881,379.28 450.686,378.764 450.686,378.017L450.686,343.959C450.686,343.813 450.721,343.673 450.797,343.562C450.875,343.45 451.007,343.36 451.195,343.29C451.385,343.227 451.642,343.172 451.962,343.123C452.283,343.074 452.673,343.052 453.126,343.052C453.601,343.052 453.991,343.08 454.305,343.129C454.618,343.172 454.87,343.227 455.058,343.297C455.247,343.367 455.379,343.45 455.456,343.569C455.532,343.681 455.568,343.813 455.568,343.966L455.568,375.827L468.775,375.827C468.95,375.827 469.088,375.869 469.214,375.953C469.34,376.037 469.444,376.162 469.528,376.322C469.612,376.476 469.675,376.685 469.716,376.951C469.752,377.215 469.772,377.536 469.772,377.905M398.386,353.715L398.386,379.454C398.386,379.6 398.35,379.732 398.287,379.838C398.226,379.942 398.107,380.033 397.94,380.11C397.772,380.185 397.548,380.242 397.284,380.276C397.012,380.319 396.684,380.333 396.294,380.333C395.868,380.333 395.52,380.319 395.248,380.276C394.976,380.242 394.759,380.185 394.606,380.11C394.446,380.033 394.341,379.942 394.286,379.838C394.229,379.732 394.201,379.6 394.201,379.454L394.201,376.05C392.717,377.668 391.245,378.847 389.794,379.593C388.35,380.333 386.88,380.709 385.394,380.709C383.658,380.709 382.201,380.423 381.008,379.852C379.822,379.28 378.86,378.506 378.129,377.522C377.397,376.539 376.866,375.396 376.552,374.091C376.231,372.787 376.071,371.198 376.071,369.328L376.071,353.715C376.071,353.561 376.105,353.436 376.176,353.332C376.245,353.227 376.377,353.129 376.572,353.046C376.769,352.962 377.019,352.899 377.333,352.878C377.646,352.843 378.039,352.829 378.511,352.829C378.986,352.829 379.376,352.851 379.69,352.878C380.004,352.906 380.255,352.962 380.437,353.046C380.624,353.137 380.758,353.227 380.833,353.332C380.918,353.436 380.953,353.561 380.953,353.715L380.953,368.618C380.953,370.116 381.064,371.316 381.28,372.215C381.497,373.115 381.824,373.882 382.27,374.517C382.709,375.158 383.267,375.646 383.951,376.001C384.627,376.35 385.423,376.525 386.322,376.525C387.493,376.525 388.658,376.107 389.816,375.27C390.973,374.44 392.201,373.212 393.504,371.608L393.504,353.715C393.504,353.561 393.539,353.436 393.602,353.332C393.679,353.227 393.805,353.137 394,353.046C394.201,352.962 394.453,352.906 394.753,352.878C395.059,352.851 395.457,352.829 395.945,352.829C396.412,352.829 396.803,352.843 397.116,352.878C397.43,352.899 397.674,352.962 397.855,353.046C398.03,353.129 398.163,353.227 398.253,353.332C398.337,353.436 398.386,353.561 398.386,353.715M310.361,363.973L324.315,363.973C324.321,363.847 324.321,363.729 324.321,363.61C324.321,361.17 323.771,359.245 322.669,357.836C321.518,356.351 319.81,355.605 317.537,355.605C316.372,355.605 315.354,355.835 314.475,356.296C313.597,356.763 312.864,357.369 312.271,358.129C311.679,358.896 311.226,359.781 310.897,360.8C310.576,361.811 310.395,362.871 310.361,363.973M298.666,363.533L298.666,379.286C298.666,379.446 298.625,379.572 298.548,379.677C298.465,379.789 298.339,379.872 298.165,379.949C297.984,380.025 297.738,380.088 297.425,380.124C297.111,380.165 296.713,380.185 296.24,380.185C295.745,380.185 295.341,380.165 295.026,380.124C294.713,380.088 294.468,380.025 294.287,379.949C294.108,379.879 293.981,379.789 293.904,379.684C293.82,379.572 293.787,379.446 293.787,379.294L293.787,364.189C293.787,362.717 293.674,361.532 293.443,360.632C293.22,359.74 292.893,358.965 292.46,358.318C292.028,357.662 291.47,357.167 290.779,356.825C290.098,356.476 289.301,356.302 288.394,356.302C287.231,356.302 286.066,356.728 284.901,357.571C283.737,358.409 282.517,359.643 281.232,361.267L281.232,379.294C281.232,379.446 281.198,379.572 281.114,379.684C281.037,379.789 280.912,379.879 280.731,379.949C280.55,380.025 280.306,380.088 279.992,380.124C279.678,380.165 279.273,380.185 278.778,380.185C278.305,380.185 277.907,380.165 277.593,380.124C277.28,380.088 277.028,380.033 276.841,379.956C276.652,379.879 276.526,379.789 276.456,379.684C276.386,379.58 276.352,379.454 276.352,379.3L276.352,341.316C276.352,341.162 276.386,341.03 276.456,340.919C276.526,340.807 276.652,340.709 276.841,340.632C277.028,340.557 277.28,340.5 277.593,340.466C277.907,340.423 278.305,340.409 278.778,340.409C279.273,340.409 279.678,340.423 279.992,340.466C280.306,340.5 280.55,340.557 280.731,340.632C280.912,340.709 281.037,340.807 281.114,340.919C281.198,341.03 281.232,341.162 281.232,341.316L281.232,356.637C282.586,355.116 283.946,353.98 285.319,353.234C286.693,352.495 288.073,352.118 289.462,352.118C291.177,352.118 292.621,352.418 293.792,352.997C294.963,353.582 295.911,354.363 296.638,355.34C297.363,356.316 297.878,357.467 298.193,358.778C298.506,360.088 298.666,361.679 298.666,363.533M230.104,355.256C230.104,355.695 230.098,356.072 230.076,356.371C230.064,356.671 230.021,356.909 229.964,357.083C229.909,357.25 229.84,357.384 229.755,357.473C229.665,357.564 229.546,357.607 229.4,357.607C229.247,357.607 229.059,357.536 228.849,357.384C228.626,357.23 228.382,357.083 228.11,356.929C227.831,356.777 227.524,356.637 227.189,356.505C226.848,356.371 226.478,356.302 226.081,356.302C225.606,356.302 225.147,356.399 224.686,356.594C224.239,356.791 223.758,357.112 223.257,357.557C222.755,358.003 222.232,358.596 221.688,359.335C221.137,360.075 220.53,360.975 219.867,362.041L219.867,379.28C219.867,379.432 219.832,379.566 219.749,379.677C219.672,379.781 219.546,379.872 219.365,379.949C219.184,380.025 218.939,380.088 218.626,380.124C218.312,380.158 217.908,380.185 217.413,380.185C216.939,380.185 216.541,380.165 216.227,380.124C215.914,380.088 215.663,380.025 215.474,379.949C215.285,379.872 215.161,379.789 215.09,379.677C215.021,379.572 214.986,379.446 214.986,379.286L214.986,353.415C214.986,353.261 215.015,353.129 215.07,353.025C215.125,352.92 215.237,352.829 215.411,352.739C215.579,352.656 215.795,352.593 216.053,352.565C216.318,352.536 216.659,352.522 217.092,352.522C217.504,352.522 217.845,352.536 218.117,352.565C218.389,352.593 218.598,352.656 218.744,352.739C218.898,352.829 219.01,352.92 219.073,353.025C219.136,353.129 219.17,353.261 219.17,353.415L219.17,357.181C219.889,356.149 220.557,355.305 221.186,354.649C221.813,354.001 222.406,353.484 222.971,353.115C223.529,352.739 224.087,352.481 224.637,352.335C225.188,352.195 225.746,352.118 226.304,352.118C226.555,352.118 226.84,352.132 227.161,352.167C227.483,352.195 227.817,352.25 228.159,352.327C228.507,352.411 228.828,352.502 229.107,352.607C229.386,352.704 229.581,352.802 229.7,352.899C229.818,353.003 229.895,353.101 229.93,353.192C229.972,353.283 230.007,353.395 230.035,353.541C230.064,353.681 230.084,353.882 230.09,354.154C230.104,354.426 230.104,354.796 230.104,355.256M207.699,364.495L207.699,365.368C207.699,366.121 207.518,366.665 207.141,366.978C206.771,367.299 206.347,367.459 205.872,367.459L189.024,367.459C189.024,368.951 189.164,370.297 189.449,371.49C189.735,372.682 190.21,373.707 190.88,374.566C191.542,375.423 192.413,376.078 193.48,376.539C194.54,376.992 195.844,377.223 197.392,377.223C198.612,377.223 199.694,377.097 200.649,376.846C201.597,376.602 202.421,376.322 203.117,376.016C203.815,375.709 204.386,375.43 204.833,375.179C205.279,374.935 205.62,374.809 205.844,374.809C205.983,374.809 206.101,374.844 206.207,374.913C206.311,374.984 206.388,375.081 206.444,375.214C206.507,375.353 206.548,375.542 206.576,375.786C206.604,376.03 206.618,376.33 206.618,376.679C206.618,376.929 206.611,377.152 206.59,377.333C206.57,377.522 206.548,377.682 206.521,377.828C206.493,377.976 206.444,378.108 206.381,378.226C206.311,378.345 206.227,378.457 206.123,378.561C206.018,378.666 205.711,378.839 205.196,379.091C204.686,379.328 204.024,379.572 203.208,379.803C202.392,380.039 201.451,380.248 200.377,380.43C199.31,380.618 198.166,380.709 196.954,380.709C194.847,380.709 193.006,380.409 191.422,379.809C189.841,379.217 188.509,378.331 187.427,377.152C186.347,375.974 185.531,374.503 184.979,372.731C184.429,370.96 184.157,368.896 184.157,366.546C184.157,364.308 184.443,362.299 185.015,360.521C185.58,358.736 186.396,357.223 187.469,355.981C188.543,354.741 189.833,353.785 191.353,353.123C192.867,352.453 194.561,352.118 196.444,352.118C198.452,352.118 200.161,352.453 201.576,353.109C202.985,353.764 204.142,354.656 205.056,355.766C205.963,356.881 206.631,358.185 207.057,359.692C207.49,361.19 207.699,362.794 207.699,364.495M177.33,341.434L177.33,379.454C177.33,379.607 177.295,379.74 177.232,379.852C177.163,379.963 177.051,380.061 176.891,380.124C176.723,380.185 176.514,380.242 176.249,380.284C175.984,380.319 175.663,380.339 175.279,380.339C174.882,380.339 174.547,380.319 174.283,380.284C174.017,380.242 173.802,380.185 173.627,380.124C173.46,380.061 173.334,379.963 173.258,379.852C173.181,379.74 173.146,379.607 173.146,379.454L173.146,376.058C171.786,377.522 170.377,378.666 168.913,379.481C167.456,380.297 165.852,380.709 164.116,380.709C162.218,380.709 160.608,380.333 159.269,379.593C157.931,378.854 156.849,377.85 156.012,376.588C155.182,375.325 154.575,373.847 154.192,372.138C153.808,370.437 153.621,368.638 153.621,366.748C153.621,364.509 153.857,362.495 154.332,360.695C154.806,358.89 155.511,357.355 156.437,356.079C157.365,354.81 158.516,353.833 159.89,353.15C161.264,352.467 162.854,352.118 164.652,352.118C166.152,352.118 167.525,352.473 168.759,353.178C170.008,353.89 171.235,354.928 172.449,356.302L172.449,341.428C172.449,341.296 172.484,341.17 172.547,341.044C172.622,340.926 172.748,340.829 172.943,340.758C173.146,340.695 173.397,340.64 173.696,340.591C174.004,340.543 174.387,340.521 174.861,340.521C175.35,340.521 175.746,340.543 176.061,340.591C176.374,340.64 176.619,340.695 176.8,340.758C176.974,340.829 177.106,340.926 177.198,341.044C177.281,341.17 177.33,341.302 177.33,341.434M116.662,343.966L116.662,366.519C116.662,368.764 116.327,370.772 115.672,372.53C115.016,374.286 114.074,375.778 112.854,377C111.634,378.212 110.148,379.14 108.391,379.767C106.641,380.394 104.647,380.709 102.416,380.709C100.372,380.709 98.51,380.409 96.836,379.824C95.156,379.231 93.719,378.366 92.52,377.209C91.314,376.058 90.386,374.621 89.737,372.885C89.089,371.155 88.768,369.154 88.768,366.888L88.768,343.966C88.768,343.813 88.803,343.681 88.88,343.562C88.957,343.45 89.089,343.36 89.284,343.297C89.472,343.227 89.716,343.172 90.023,343.123C90.33,343.074 90.727,343.052 91.223,343.052C91.683,343.052 92.067,343.08 92.394,343.129C92.715,343.178 92.966,343.234 93.147,343.297C93.329,343.367 93.461,343.458 93.538,343.569C93.614,343.687 93.65,343.819 93.65,343.973L93.65,366.302C93.65,368.017 93.859,369.509 94.277,370.786C94.696,372.063 95.309,373.122 96.097,373.965C96.892,374.816 97.848,375.451 98.963,375.883C100.079,376.309 101.334,376.525 102.729,376.525C104.158,376.525 105.435,376.316 106.551,375.897C107.673,375.479 108.614,374.852 109.389,374.008C110.162,373.177 110.749,372.138 111.159,370.898C111.571,369.663 111.78,368.212 111.78,366.56L111.78,343.973C111.78,343.819 111.815,343.687 111.892,343.569C111.969,343.458 112.101,343.367 112.29,343.297C112.485,343.234 112.736,343.178 113.049,343.129C113.364,343.08 113.76,343.052 114.235,343.052C114.695,343.052 115.079,343.074 115.392,343.123C115.706,343.172 115.95,343.227 116.131,343.297C116.313,343.36 116.445,343.45 116.529,343.562C116.62,343.681 116.662,343.813 116.662,343.966" style="fill:rgb(255,242,0);"/>
    </g>
    <defs>
        <radialGradient id="_Radial2" cx="0" cy="0" r="1" gradientUnits="userSpaceOnUse" gradientTransform="matrix(1,0,0,-1,0,-0.0306321)"><stop offset="0" style="stop-color:rgb(198,200,202);stop-opacity:1"/><stop offset="1" style="stop-color:rgb(148,150,152);stop-opacity:1"/></radialGradient>
        <radialGradient id="_Radial4" cx="0" cy="0" r="1" gradientUnits="userSpaceOnUse" gradientTransform="matrix(1,0,0,-1,0,0.0165719)"><stop offset="0" style="stop-color:rgb(255,242,0);stop-opacity:1"/><stop offset="1" style="stop-color:rgb(239,66,35);stop-opacity:1"/></radialGradient>
    </defs>
</svg>
